<svg width="20" height="20" viewBox="0 0 20 20" fill="none" xmlns="http://www.w3.org/2000/svg">
<path d="M6.00385 13.1678H17.0234C18.2734 13.1678 19.2929 12.1483 19.2929 10.8983V6.26159C19.2929 6.25769 19.2929 6.24987 19.2929 6.24597C19.2929 6.23425 19.2929 6.22644 19.2929 6.21472C19.2929 6.2069 19.2929 6.19909 19.289 6.19128C19.289 6.18347 19.2851 6.17175 19.2851 6.16394C19.2851 6.15612 19.2812 6.14831 19.2812 6.1405C19.2773 6.13269 19.2773 6.12487 19.2734 6.11315C19.2695 6.10534 19.2695 6.09753 19.2656 6.08972C19.2617 6.0819 19.2617 6.07409 19.2578 6.06628C19.2538 6.05847 19.2499 6.05065 19.246 6.03894C19.2421 6.03112 19.2382 6.02331 19.2343 6.0194C19.2304 6.01159 19.2265 6.00378 19.2226 5.99597C19.2187 5.98815 19.2148 5.98425 19.2109 5.97644C19.207 5.96862 19.1992 5.96081 19.1953 5.953C19.1913 5.94519 19.1874 5.94128 19.1796 5.93347C19.1757 5.92565 19.1679 5.92175 19.164 5.91394C19.1601 5.90612 19.1523 5.90222 19.1484 5.8944C19.1445 5.88659 19.1367 5.88269 19.1328 5.87878C19.1249 5.87097 19.121 5.86706 19.1132 5.85925C19.1054 5.85534 19.1015 5.84753 19.0937 5.84362C19.0859 5.83972 19.0781 5.8319 19.0703 5.828C19.0624 5.82409 19.0585 5.82019 19.0507 5.81628C19.0429 5.81237 19.0351 5.80847 19.0273 5.80065C19.0195 5.79675 19.0117 5.79284 19.0038 5.78894C18.996 5.78503 18.9882 5.78112 18.9804 5.77722C18.9726 5.77331 18.9648 5.7694 18.957 5.7655C18.9492 5.76159 18.9413 5.76159 18.9335 5.75769C18.9257 5.75378 18.914 5.74987 18.9062 5.74987C18.8984 5.74987 18.8906 5.74597 18.8867 5.74597C18.8749 5.74206 18.8671 5.74206 18.8554 5.74206C18.8515 5.74206 18.8476 5.73815 18.8398 5.73815L4.8476 3.78503V1.83581C4.8476 1.81628 4.8476 1.79285 4.84369 1.77722C4.84369 1.77331 4.84369 1.76941 4.83978 1.7616C4.83978 1.74988 4.83588 1.73816 4.83588 1.72644C4.83197 1.71472 4.83197 1.70691 4.82806 1.69519C4.82806 1.68738 4.82416 1.68347 4.82416 1.67566C4.82025 1.66394 4.81635 1.65222 4.81244 1.6405C4.81244 1.6366 4.80853 1.62878 4.80853 1.62488C4.80463 1.61316 4.80072 1.60535 4.79291 1.59363C4.789 1.58972 4.789 1.58191 4.7851 1.578C4.78119 1.57019 4.77728 1.56238 4.76947 1.55456C4.76556 1.54675 4.76166 1.54285 4.75775 1.53503C4.75385 1.52722 4.74994 1.52331 4.74603 1.5155C4.74213 1.50769 4.73431 1.49988 4.73041 1.49206C4.7265 1.48816 4.7226 1.48425 4.71869 1.48035C4.71088 1.47253 4.70306 1.46472 4.69525 1.45691C4.69135 1.453 4.68744 1.4491 4.68353 1.44519C4.67572 1.43738 4.66791 1.42956 4.65619 1.42175C4.65228 1.41785 4.64447 1.41394 4.64056 1.41003C4.63275 1.40222 4.62494 1.39831 4.61713 1.3905C4.60541 1.38269 4.59369 1.37488 4.58588 1.37097C4.58197 1.36706 4.57806 1.36706 4.57416 1.36316C4.55853 1.35535 4.539 1.34753 4.51947 1.33972L1.4765 0.0428474C1.19135 -0.0782462 0.867127 0.0545661 0.749939 0.339722C0.632752 0.624878 0.761658 0.949097 1.04681 1.06628L3.73431 2.1991V4.71472V5.11706V8.17565V10.91V14.3631C3.73431 15.5155 4.5976 16.4686 5.71088 16.6131C5.50775 16.9491 5.39056 17.3436 5.39056 17.7655C5.39056 19.0038 6.39838 20.0038 7.62885 20.0038C8.85931 20.0038 9.86713 18.996 9.86713 17.7655C9.86713 17.3553 9.75775 16.9647 9.55853 16.6366H14.5468C14.3476 16.9686 14.2382 17.3553 14.2382 17.7655C14.2382 19.0038 15.246 20.0038 16.4765 20.0038C17.707 20.0038 18.7148 18.996 18.7148 17.7655C18.7148 16.535 17.707 15.5272 16.4765 15.5272H6.00385C5.36322 15.5272 4.84369 15.0038 4.84369 14.3671V12.8631C5.18353 13.0546 5.58197 13.1678 6.00385 13.1678ZM8.76556 17.7538C8.76556 18.3788 8.25775 18.8827 7.63666 18.8827C7.01556 18.8827 6.50775 18.3749 6.50775 17.7538C6.50775 17.1327 7.01556 16.6249 7.63666 16.6249C8.25775 16.6249 8.76556 17.1327 8.76556 17.7538ZM17.621 17.7538C17.621 18.3788 17.1132 18.8827 16.4921 18.8827C15.871 18.8827 15.3632 18.3749 15.3632 17.7538C15.3632 17.1327 15.871 16.6249 16.4921 16.6249C17.1132 16.6249 17.621 17.1327 17.621 17.7538ZM17.0234 12.0585H6.00385C5.36322 12.0585 4.84369 11.535 4.84369 10.8983V8.16393V5.10534V4.89831L18.1835 6.73425V10.8905C18.1835 11.5389 17.6601 12.0585 17.0234 12.0585Z" fill="black"/>
</svg>
