<svg fill="#000000" xmlns="http://www.w3.org/2000/svg"  viewBox="0 0 24 24" width="24px" height="24px"><path d="M 5 3 C 4.4777778 3 3.9453899 3.1913289 3.5683594 3.5683594 C 3.1913289 3.9453899 3 4.4777778 3 5 L 3 19 C 3 19.522222 3.1913289 20.05461 3.5683594 20.431641 C 3.9453899 20.808671 4.4777778 21 5 21 L 19 21 C 19.522222 21 20.05461 20.808671 20.431641 20.431641 C 20.808671 20.05461 21 19.522222 21 19 L 21 5 C 21 4.4777778 20.808671 3.9453899 20.431641 3.5683594 C 20.05461 3.1913289 19.522222 3 19 3 L 5 3 z M 5 5 L 19 5 L 19 19 L 5 19 L 5 5 z"/></svg>